<mxfile host="app.diagrams.net" modified="2023-04-27T18:50:49.736Z" agent="Mozilla/5.0 (Windows NT 10.0; Win64; x64) AppleWebKit/537.36 (KHTML, like Gecko) Chrome/111.0.0.0 Safari/537.36 OPR/97.0.0.0" version="21.2.1" etag="FGyV64OV6dFvRjklvYwZ" type="github">
  <diagram name="Страница 1" id="YvWskp4fRhhuQ19tSxbE">
    <mxGraphModel>
      <root>
        <mxCell id="0" />
        <mxCell id="1" parent="0" />
      </root>
    </mxGraphModel>
  </diagram>
</mxfile>
